<svg width="192" height="63" viewBox="0 0 192 63" fill="none" xmlns="http://www.w3.org/2000/svg">
<rect width="191.901" height="63" rx="3.94803" fill="#F2F2F2"/>
<path d="M19.7194 39.9882H14.9817C10.6942 39.9882 8.8623 38.1564 8.8623 33.8688V29.1312C8.8623 24.8436 10.6942 23.0117 14.9817 23.0117H19.7194C24.0069 23.0117 25.8388 24.8436 25.8388 29.1312V33.8688C25.8388 38.1564 24.0069 39.9882 19.7194 39.9882ZM14.9817 24.1961C11.3417 24.1961 10.0467 25.4911 10.0467 29.1312V33.8688C10.0467 37.5089 11.3417 38.8038 14.9817 38.8038H19.7194C23.3595 38.8038 24.6544 37.5089 24.6544 33.8688V29.1312C24.6544 25.4911 23.3595 24.1961 19.7194 24.1961H14.9817Z" fill="#292929"/>
<path d="M16.2291 34.327C16.0712 34.327 15.9212 34.2638 15.8106 34.1533L13.576 31.9187C13.3471 31.6897 13.3471 31.3107 13.576 31.0817C13.805 30.8527 14.184 30.8527 14.413 31.0817L16.2291 32.8978L20.2877 28.8392C20.5167 28.6102 20.8957 28.6102 21.1247 28.8392C21.3537 29.0682 21.3537 29.4472 21.1247 29.6762L16.6476 34.1533C16.5371 34.2638 16.387 34.327 16.2291 34.327Z" fill="#292929"/>
<path d="M37.8926 36.0884C37.7326 36.0884 37.6105 36.0463 37.5262 35.9621C37.442 35.8695 37.3999 35.7389 37.3999 35.5705V27.5354C37.3999 27.367 37.442 27.2364 37.5262 27.1438C37.6105 27.0511 37.72 27.0048 37.8547 27.0048C37.9895 27.0048 38.0863 27.0301 38.1453 27.0806C38.2127 27.1227 38.2885 27.2027 38.3727 27.3207L43.881 34.6608H43.5778V27.5102C43.5778 27.3501 43.6199 27.228 43.7041 27.1438C43.7883 27.0511 43.9105 27.0048 44.0705 27.0048C44.2221 27.0048 44.3358 27.0511 44.4116 27.1438C44.4958 27.228 44.5379 27.3501 44.5379 27.5102V35.5831C44.5379 35.7431 44.5 35.8695 44.4242 35.9621C44.3569 36.0463 44.2558 36.0884 44.121 36.0884C43.9947 36.0884 43.8936 36.0632 43.8178 36.0126C43.742 35.9621 43.662 35.8821 43.5778 35.7726L38.0821 28.4324H38.3727V35.5705C38.3727 35.7389 38.3306 35.8695 38.2464 35.9621C38.1621 36.0463 38.0442 36.0884 37.8926 36.0884ZM49.1648 36.1137C48.5668 36.1137 48.0489 35.9832 47.6109 35.7221C47.1729 35.461 46.8318 35.0946 46.5876 34.6229C46.3517 34.1428 46.2338 33.5785 46.2338 32.93C46.2338 32.4415 46.3012 32.0035 46.436 31.6161C46.5707 31.2203 46.7686 30.8834 47.0297 30.6054C47.2908 30.3275 47.5983 30.1169 47.952 29.9737C48.3142 29.8221 48.7184 29.7463 49.1648 29.7463C49.7628 29.7463 50.2808 29.8769 50.7188 30.138C51.1568 30.3991 51.4936 30.7697 51.7295 31.2497C51.9737 31.7214 52.0959 32.2815 52.0959 32.93C52.0959 33.4185 52.0285 33.8565 51.8937 34.2439C51.759 34.6314 51.561 34.9682 51.2999 35.2546C51.0388 35.5326 50.7272 35.7473 50.365 35.8989C50.0113 36.0421 49.6112 36.1137 49.1648 36.1137ZM49.1648 35.2925C49.5438 35.2925 49.8765 35.1999 50.1629 35.0146C50.4493 34.8293 50.6682 34.5598 50.8199 34.206C50.9799 33.8523 51.0599 33.4269 51.0599 32.93C51.0599 32.1636 50.8872 31.5782 50.5419 31.1739C50.205 30.7697 49.746 30.5675 49.1648 30.5675C48.7774 30.5675 48.4405 30.6602 48.1541 30.8455C47.8762 31.0223 47.6572 31.2876 47.4972 31.6414C47.3456 31.9867 47.2698 32.4162 47.2698 32.93C47.2698 33.688 47.4424 34.2734 47.7878 34.6861C48.1331 35.0904 48.5921 35.2925 49.1648 35.2925ZM58.962 36.1137C58.583 36.1137 58.1997 36.0674 57.8123 35.9747C57.4333 35.8821 57.0795 35.7221 56.7511 35.4947C56.6668 35.4357 56.6079 35.3683 56.5742 35.2925C56.5405 35.2083 56.5279 35.1283 56.5363 35.0525C56.5531 34.9682 56.5868 34.8967 56.6374 34.8377C56.6963 34.7787 56.7637 34.7451 56.8395 34.7366C56.9237 34.7198 57.0164 34.7366 57.1175 34.7872C57.4459 34.9893 57.7618 35.1325 58.065 35.2167C58.3766 35.2925 58.684 35.3304 58.9872 35.3304C59.4673 35.3304 59.8295 35.242 60.0737 35.0651C60.318 34.8882 60.4401 34.6482 60.4401 34.345C60.4401 34.1092 60.3601 33.9239 60.2001 33.7891C60.04 33.6459 59.7874 33.5364 59.4421 33.4606L58.2924 33.208C57.7618 33.0985 57.3659 32.909 57.1048 32.6394C56.8521 32.3699 56.7258 32.0204 56.7258 31.5908C56.7258 31.2118 56.8227 30.8876 57.0164 30.618C57.2185 30.3401 57.5007 30.1253 57.8628 29.9737C58.225 29.8221 58.6461 29.7463 59.1262 29.7463C59.4968 29.7463 59.8463 29.7969 60.1748 29.8979C60.5117 29.9906 60.8149 30.1422 61.0844 30.3527C61.1687 30.4117 61.2234 30.4833 61.2487 30.5675C61.2824 30.6433 61.2866 30.7233 61.2613 30.8076C61.2445 30.8834 61.2066 30.9507 61.1476 31.0097C61.0886 31.0602 61.0171 31.0897 60.9328 31.0981C60.8486 31.1066 60.7602 31.0813 60.6675 31.0223C60.4148 30.8539 60.158 30.7318 59.8969 30.6559C59.6358 30.5717 59.3789 30.5296 59.1262 30.5296C58.6545 30.5296 58.2966 30.6223 58.0523 30.8076C57.8081 30.9928 57.686 31.2371 57.686 31.5403C57.686 31.7761 57.7618 31.9699 57.9134 32.1215C58.065 32.2731 58.3008 32.3826 58.6209 32.4499L59.7705 32.69C60.318 32.8079 60.7265 32.9974 60.996 33.2585C61.2739 33.5112 61.4129 33.8565 61.4129 34.2945C61.4129 34.8503 61.1897 35.2925 60.7433 35.621C60.2969 35.9495 59.7031 36.1137 58.962 36.1137ZM65.5245 36.1137C64.9265 36.1137 64.4085 35.9832 63.9705 35.7221C63.5326 35.461 63.1915 35.0946 62.9472 34.6229C62.7114 34.1428 62.5935 33.5785 62.5935 32.93C62.5935 32.4415 62.6608 32.0035 62.7956 31.6161C62.9304 31.2203 63.1283 30.8834 63.3894 30.6054C63.6505 30.3275 63.9579 30.1169 64.3116 29.9737C64.6738 29.8221 65.0781 29.7463 65.5245 29.7463C66.1225 29.7463 66.6405 29.8769 67.0784 30.138C67.5164 30.3991 67.8533 30.7697 68.0891 31.2497C68.3334 31.7214 68.4555 32.2815 68.4555 32.93C68.4555 33.4185 68.3881 33.8565 68.2534 34.2439C68.1186 34.6314 67.9207 34.9682 67.6596 35.2546C67.3985 35.5326 67.0868 35.7473 66.7247 35.8989C66.3709 36.0421 65.9709 36.1137 65.5245 36.1137ZM65.5245 35.2925C65.9035 35.2925 66.2362 35.1999 66.5225 35.0146C66.8089 34.8293 67.0279 34.5598 67.1795 34.206C67.3395 33.8523 67.4195 33.4269 67.4195 32.93C67.4195 32.1636 67.2469 31.5782 66.9016 31.1739C66.5647 30.7697 66.1056 30.5675 65.5245 30.5675C65.137 30.5675 64.8001 30.6602 64.5138 30.8455C64.2358 31.0223 64.0169 31.2876 63.8568 31.6414C63.7052 31.9867 63.6294 32.4162 63.6294 32.93C63.6294 33.688 63.8021 34.2734 64.1474 34.6861C64.4927 35.0904 64.9518 35.2925 65.5245 35.2925ZM71.2706 38.3625C71.1443 38.3625 71.0432 38.3288 70.9674 38.2614C70.8916 38.1941 70.8453 38.1014 70.8285 37.9835C70.82 37.874 70.8411 37.7603 70.8916 37.6424L71.7634 35.6842V36.1263L69.3377 30.4917C69.2871 30.3654 69.2703 30.2475 69.2871 30.138C69.304 30.0285 69.3545 29.94 69.4388 29.8727C69.523 29.8053 69.6409 29.7716 69.7925 29.7716C69.9273 29.7716 70.0325 29.8011 70.1083 29.86C70.1841 29.919 70.2515 30.0243 70.3105 30.1759L72.3824 35.2546H72.0413L74.1385 30.1759C74.2059 30.0243 74.2775 29.919 74.3533 29.86C74.4291 29.8011 74.5386 29.7716 74.6817 29.7716C74.8165 29.7716 74.9176 29.8053 74.9849 29.8727C75.0607 29.94 75.1029 30.0285 75.1113 30.138C75.1281 30.239 75.1113 30.3527 75.0607 30.4791L71.8265 37.9582C71.7591 38.1098 71.6833 38.2151 71.5991 38.2741C71.5233 38.333 71.4138 38.3625 71.2706 38.3625ZM81.8259 36.1137C81.329 36.1137 80.9163 36.0253 80.5878 35.8484C80.2677 35.6631 80.0235 35.3894 79.855 35.0272C79.695 34.665 79.615 34.2144 79.615 33.6754V30.2896C79.615 30.1127 79.6571 29.9822 79.7413 29.8979C79.834 29.8137 79.9603 29.7716 80.1203 29.7716C80.2888 29.7716 80.4151 29.8137 80.4994 29.8979C80.592 29.9822 80.6383 30.1127 80.6383 30.2896V33.6628C80.6383 34.2018 80.7478 34.6061 80.9668 34.8756C81.1942 35.1367 81.5479 35.2672 82.028 35.2672C82.5502 35.2672 82.9756 35.0904 83.304 34.7366C83.6325 34.3829 83.7967 33.9197 83.7967 33.3469V30.2896C83.7967 30.1127 83.8389 29.9822 83.9231 29.8979C84.0157 29.8137 84.1463 29.7716 84.3147 29.7716C84.4748 29.7716 84.5969 29.8137 84.6811 29.8979C84.7738 29.9822 84.8201 30.1127 84.8201 30.2896V35.5578C84.8201 35.9116 84.6558 36.0884 84.3274 36.0884C84.1673 36.0884 84.041 36.0421 83.9483 35.9495C83.8641 35.8568 83.822 35.7263 83.822 35.5578V34.4082L83.9863 34.585C83.8178 35.082 83.5399 35.461 83.1524 35.7221C82.7734 35.9832 82.3312 36.1137 81.8259 36.1137ZM87.24 36.0884C87.0716 36.0884 86.9452 36.0421 86.861 35.9495C86.7768 35.8568 86.7347 35.7263 86.7347 35.5578V30.2896C86.7347 30.1211 86.7768 29.9948 86.861 29.9106C86.9452 29.8179 87.0674 29.7716 87.2274 29.7716C87.3874 29.7716 87.5095 29.8179 87.5938 29.9106C87.6864 29.9948 87.7327 30.1211 87.7327 30.2896V31.3761L87.5938 31.2245C87.7706 30.736 88.057 30.3696 88.4529 30.1253C88.8571 29.8727 89.3204 29.7463 89.8426 29.7463C90.3311 29.7463 90.7353 29.8348 91.0554 30.0116C91.3839 30.1885 91.6281 30.458 91.7881 30.8202C91.9482 31.1739 92.0282 31.6245 92.0282 32.172V35.5578C92.0282 35.7263 91.9819 35.8568 91.8892 35.9495C91.805 36.0421 91.6829 36.0884 91.5228 36.0884C91.3544 36.0884 91.2238 36.0421 91.1312 35.9495C91.047 35.8568 91.0049 35.7263 91.0049 35.5578V32.2352C91.0049 31.6624 90.8912 31.2455 90.6637 30.9844C90.4448 30.7149 90.091 30.5801 89.6025 30.5801C89.0382 30.5801 88.5876 30.757 88.2507 31.1108C87.9222 31.4561 87.758 31.9193 87.758 32.5005V35.5578C87.758 35.9116 87.5853 36.0884 87.24 36.0884ZM97.6903 36.0884C97.5218 36.0884 97.3913 36.0421 97.2986 35.9495C97.2144 35.8568 97.1723 35.7263 97.1723 35.5578V30.2896C97.1723 30.1211 97.2144 29.9948 97.2986 29.9106C97.3828 29.8179 97.505 29.7716 97.665 29.7716C97.825 29.7716 97.9471 29.8179 98.0314 29.9106C98.124 29.9948 98.1703 30.1211 98.1703 30.2896V31.3129H98.044C98.1788 30.816 98.4356 30.4328 98.8146 30.1632C99.1937 29.8937 99.6611 29.7505 100.217 29.7337C100.343 29.7253 100.444 29.7547 100.52 29.8221C100.596 29.8811 100.638 29.9864 100.647 30.138C100.655 30.2811 100.621 30.3949 100.545 30.4791C100.47 30.5633 100.352 30.6138 100.192 30.6307L99.9896 30.6559C99.4169 30.7065 98.9747 30.8918 98.663 31.2118C98.3598 31.5235 98.2082 31.953 98.2082 32.5005V35.5578C98.2082 35.7263 98.1619 35.8568 98.0693 35.9495C97.985 36.0421 97.8587 36.0884 97.6903 36.0884ZM104.178 36.1137C103.58 36.1137 103.062 35.9832 102.624 35.7221C102.186 35.461 101.845 35.0946 101.601 34.6229C101.365 34.1428 101.247 33.5785 101.247 32.93C101.247 32.4415 101.315 32.0035 101.449 31.6161C101.584 31.2203 101.782 30.8834 102.043 30.6054C102.304 30.3275 102.612 30.1169 102.965 29.9737C103.327 29.8221 103.732 29.7463 104.178 29.7463C104.776 29.7463 105.294 29.8769 105.732 30.138C106.17 30.3991 106.507 30.7697 106.743 31.2497C106.987 31.7214 107.109 32.2815 107.109 32.93C107.109 33.4185 107.042 33.8565 106.907 34.2439C106.772 34.6314 106.574 34.9682 106.313 35.2546C106.052 35.5326 105.741 35.7473 105.378 35.8989C105.025 36.0421 104.625 36.1137 104.178 36.1137ZM104.178 35.2925C104.557 35.2925 104.89 35.1999 105.176 35.0146C105.463 34.8293 105.682 34.5598 105.833 34.206C105.993 33.8523 106.073 33.4269 106.073 32.93C106.073 32.1636 105.901 31.5782 105.555 31.1739C105.218 30.7697 104.759 30.5675 104.178 30.5675C103.791 30.5675 103.454 30.6602 103.167 30.8455C102.89 31.0223 102.671 31.2876 102.51 31.6414C102.359 31.9867 102.283 32.4162 102.283 32.93C102.283 33.688 102.456 34.2734 102.801 34.6861C103.146 35.0904 103.605 35.2925 104.178 35.2925ZM111.754 36.1137C111.198 36.1137 110.718 35.9705 110.314 35.6842C109.918 35.3978 109.653 35.0146 109.518 34.5345L109.657 34.3955V35.5578C109.657 35.7263 109.611 35.8568 109.518 35.9495C109.434 36.0421 109.312 36.0884 109.152 36.0884C108.983 36.0884 108.857 36.0421 108.773 35.9495C108.688 35.8568 108.646 35.7263 108.646 35.5578V27.5228C108.646 27.3543 108.688 27.228 108.773 27.1438C108.857 27.0511 108.983 27.0048 109.152 27.0048C109.312 27.0048 109.438 27.0511 109.531 27.1438C109.623 27.228 109.67 27.3543 109.67 27.5228V31.2876H109.518C109.661 30.816 109.931 30.4412 110.327 30.1632C110.722 29.8853 111.198 29.7463 111.754 29.7463C112.31 29.7463 112.79 29.8769 113.194 30.138C113.599 30.3906 113.91 30.757 114.129 31.2371C114.357 31.7088 114.47 32.2731 114.47 32.93C114.47 33.5785 114.357 34.1428 114.129 34.6229C113.91 35.0946 113.594 35.461 113.182 35.7221C112.777 35.9832 112.302 36.1137 111.754 36.1137ZM111.539 35.2925C111.927 35.2925 112.259 35.1999 112.537 35.0146C112.824 34.8293 113.043 34.5598 113.194 34.206C113.354 33.8523 113.434 33.4269 113.434 32.93C113.434 32.1636 113.262 31.5782 112.916 31.1739C112.58 30.7697 112.12 30.5675 111.539 30.5675C111.16 30.5675 110.828 30.6602 110.541 30.8455C110.255 31.0223 110.032 31.2876 109.872 31.6414C109.72 31.9867 109.644 32.4162 109.644 32.93C109.644 33.688 109.817 34.2734 110.162 34.6861C110.508 35.0904 110.967 35.2925 111.539 35.2925ZM118.564 36.1137C117.966 36.1137 117.448 35.9832 117.01 35.7221C116.572 35.461 116.231 35.0946 115.986 34.6229C115.751 34.1428 115.633 33.5785 115.633 32.93C115.633 32.4415 115.7 32.0035 115.835 31.6161C115.97 31.2203 116.168 30.8834 116.429 30.6054C116.69 30.3275 116.997 30.1169 117.351 29.9737C117.713 29.8221 118.117 29.7463 118.564 29.7463C119.162 29.7463 119.68 29.8769 120.118 30.138C120.556 30.3991 120.893 30.7697 121.128 31.2497C121.373 31.7214 121.495 32.2815 121.495 32.93C121.495 33.4185 121.427 33.8565 121.293 34.2439C121.158 34.6314 120.96 34.9682 120.699 35.2546C120.438 35.5326 120.126 35.7473 119.764 35.8989C119.41 36.0421 119.01 36.1137 118.564 36.1137ZM118.564 35.2925C118.943 35.2925 119.275 35.1999 119.562 35.0146C119.848 34.8293 120.067 34.5598 120.219 34.206C120.379 33.8523 120.459 33.4269 120.459 32.93C120.459 32.1636 120.286 31.5782 119.941 31.1739C119.604 30.7697 119.145 30.5675 118.564 30.5675C118.176 30.5675 117.839 30.6602 117.553 30.8455C117.275 31.0223 117.056 31.2876 116.896 31.6414C116.745 31.9867 116.669 32.4162 116.669 32.93C116.669 33.688 116.841 34.2734 117.187 34.6861C117.532 35.0904 117.991 35.2925 118.564 35.2925ZM125.434 36.1137C124.954 36.1137 124.549 36.0295 124.221 35.861C123.901 35.6842 123.661 35.4315 123.501 35.103C123.341 34.7661 123.261 34.3576 123.261 33.8775V30.6559H122.414C122.271 30.6559 122.162 30.6223 122.086 30.5549C122.01 30.4791 121.972 30.378 121.972 30.2517C121.972 30.1253 122.01 30.0285 122.086 29.9611C122.162 29.8937 122.271 29.86 122.414 29.86H123.261V28.4072C123.261 28.2387 123.307 28.1124 123.4 28.0281C123.492 27.9355 123.619 27.8892 123.779 27.8892C123.939 27.8892 124.061 27.9355 124.145 28.0281C124.238 28.1124 124.284 28.2387 124.284 28.4072V29.86H125.876C126.019 29.86 126.129 29.8937 126.204 29.9611C126.28 30.0285 126.318 30.1253 126.318 30.2517C126.318 30.378 126.28 30.4791 126.204 30.5549C126.129 30.6223 126.019 30.6559 125.876 30.6559H124.284V33.7765C124.284 34.2566 124.385 34.6229 124.587 34.8756C124.789 35.1199 125.118 35.242 125.573 35.242C125.733 35.242 125.867 35.2251 125.977 35.1914C126.095 35.1578 126.192 35.1409 126.268 35.1409C126.343 35.1325 126.407 35.1578 126.457 35.2167C126.508 35.2757 126.533 35.3767 126.533 35.5199C126.533 35.621 126.512 35.7136 126.47 35.7979C126.436 35.8821 126.373 35.941 126.28 35.9747C126.179 36.0084 126.044 36.0379 125.876 36.0632C125.716 36.0969 125.568 36.1137 125.434 36.1137Z" fill="#292929"/>
<g clip-path="url(#clip0_1_42718)">
<path d="M175.777 24.5813C175.776 24.3565 175.771 24.1316 175.76 23.907V11.1607L172.237 14.6846C169.352 11.1539 164.965 8.89941 160.05 8.89941C154.936 8.89941 150.393 11.3407 147.521 15.1207L153.297 20.958C153.862 19.9131 154.663 19.0142 155.637 18.3326C156.645 17.5455 158.074 16.9024 160.05 16.9024C160.289 16.9024 160.473 16.9301 160.609 16.9826C163.058 17.1761 165.18 18.5276 166.43 20.4889L162.342 24.5783C167.521 24.5577 173.371 24.546 175.776 24.5809" fill="#37474F"/>
<path d="M159.958 8.89941C159.732 8.90016 159.507 8.90541 159.283 8.91554H146.537L150.061 12.4394C146.53 15.3236 144.275 19.7111 144.275 24.6255C144.275 29.7398 146.717 34.2834 150.497 37.1555L156.334 31.3793C155.289 30.8137 154.39 30.0126 153.709 29.0393C152.922 28.0309 152.278 26.6022 152.278 24.6255C152.278 24.387 152.306 24.2025 152.359 24.0672C152.552 21.6184 153.904 19.4959 155.865 18.2456L159.954 22.3343C159.934 17.1555 159.922 11.3054 159.957 8.89979" fill="#37474F"/>
<path d="M144.275 24.625C144.276 24.8508 144.281 25.0754 144.292 25.2993V38.0456L147.815 34.5221C150.7 38.0524 155.087 40.3072 160.002 40.3072C165.116 40.3072 169.659 37.866 172.531 34.0856L166.755 28.2483C166.19 29.2932 165.389 30.1921 164.415 30.8737C163.407 31.6608 161.978 32.3039 160.002 32.3039C159.763 32.3039 159.579 32.2762 159.443 32.2237C156.994 32.0302 154.872 30.6787 153.622 28.7174L157.71 24.6284C152.531 24.649 146.681 24.6606 144.276 24.6257" fill="#ABABAB"/>
<path d="M146.929 46.3979C146.546 46.3979 146.203 46.4707 145.899 46.6158C145.595 46.758 145.338 46.9608 145.126 47.2252C144.918 47.4892 144.758 47.8098 144.646 48.186C144.537 48.5591 144.482 48.9772 144.482 49.4392V50.7716C144.482 51.2374 144.537 51.6566 144.646 52.0297C144.758 52.4032 144.917 52.7216 145.121 52.986C145.326 53.2504 145.574 53.4533 145.864 53.595C146.155 53.7368 146.482 53.808 146.845 53.808C147.218 53.808 147.545 53.7536 147.826 53.6449C148.097 53.5447 148.341 53.3837 148.539 53.1743C148.736 52.9563 148.887 52.7 148.98 52.4212C149.086 52.1272 149.149 51.7939 149.168 51.4207H148.252C148.229 51.708 148.189 51.954 148.133 52.1587C148.077 52.3601 147.994 52.527 147.886 52.659C147.776 52.7908 147.632 52.8901 147.469 52.9463C147.301 53.0059 147.093 53.0355 146.845 53.0355C146.581 53.0355 146.356 52.9778 146.171 52.8623C145.983 52.74 145.829 52.5732 145.721 52.3766C145.608 52.1719 145.526 51.9326 145.473 51.6585C145.422 51.3657 145.397 51.0689 145.399 50.7716V49.4291C145.399 49.0893 145.429 48.7803 145.488 48.5028C145.55 48.2253 145.645 47.9895 145.77 47.7948C145.896 47.5998 146.054 47.4498 146.246 47.3441C146.437 47.2353 146.665 47.1806 146.929 47.1806C147.151 47.1806 147.34 47.2136 147.499 47.2796C147.658 47.3422 147.79 47.4416 147.895 47.577C148.001 47.709 148.082 47.877 148.138 48.0821C148.194 48.2868 148.232 48.531 148.252 48.8152H149.168C149.152 48.4252 149.09 48.0802 148.985 47.7802C148.879 47.4795 148.732 47.2267 148.544 47.022C148.354 46.8156 148.118 46.6562 147.856 46.5562C147.588 46.4508 147.279 46.3979 146.929 46.3979ZM169.299 46.3979C168.916 46.3979 168.573 46.4707 168.269 46.6158C167.965 46.758 167.708 46.9608 167.496 47.2252C167.288 47.4892 167.128 47.8098 167.016 48.186C166.907 48.5591 166.852 48.9772 166.852 49.4392V50.7716C166.852 51.2374 166.907 51.6566 167.016 52.0297C167.128 52.4032 167.286 52.7216 167.491 52.986C167.688 53.2438 167.943 53.4523 168.234 53.595C168.525 53.7375 168.852 53.808 169.215 53.808C169.588 53.808 169.915 53.7536 170.196 53.6449C170.466 53.5447 170.71 53.3837 170.909 53.1743C171.106 52.9564 171.256 52.7 171.35 52.4212C171.455 52.1272 171.518 51.7939 171.538 51.4207H170.622C170.598 51.708 170.559 51.954 170.503 52.1587C170.447 52.3601 170.364 52.527 170.255 52.659C170.145 52.7908 170.001 52.8901 169.839 52.9463C169.67 53.0059 169.463 53.0355 169.215 53.0355C168.951 53.0355 168.726 52.9778 168.541 52.8623C168.353 52.74 168.198 52.5732 168.09 52.3766C167.978 52.1719 167.895 51.9326 167.843 51.6585C167.792 51.3657 167.767 51.0689 167.769 50.7716V49.4291C167.769 49.0893 167.798 48.7803 167.858 48.5028C167.921 48.2253 168.015 47.9895 168.14 47.7948C168.266 47.5998 168.424 47.4498 168.615 47.3441C168.807 47.2353 169.035 47.1806 169.299 47.1806C169.52 47.1806 169.71 47.2136 169.869 47.2796C170.027 47.3422 170.159 47.4416 170.265 47.577C170.37 47.709 170.451 47.877 170.508 48.0821C170.564 48.2868 170.601 48.531 170.622 48.8152H171.538C171.521 48.4252 171.46 48.0802 171.355 47.7802C171.249 47.4795 171.102 47.2267 170.914 47.022C170.726 46.8172 170.496 46.662 170.225 46.5562C169.958 46.4508 169.649 46.3979 169.299 46.3979ZM152.151 46.4969L149.827 53.709H150.759L151.318 51.8265H153.756L154.325 53.709H155.256L152.928 46.4969H152.151ZM156.237 46.4969V53.709H157.143V50.8856H158.535C158.882 50.8856 159.189 50.8376 159.457 50.742C159.71 50.6518 159.94 50.5063 160.13 50.316C160.315 50.1311 160.454 49.9035 160.546 49.6324C160.642 49.3586 160.69 49.0481 160.69 48.7012C160.69 48.381 160.642 48.087 160.546 47.8196C160.461 47.5601 160.32 47.3219 160.135 47.121C159.947 46.9182 159.714 46.7607 159.456 46.6605C159.189 46.5517 158.882 46.4969 158.535 46.4969H156.237ZM161.383 46.4969V47.2796H163.276V53.709H164.182V47.2796H166.079V46.4969H161.383ZM172.761 46.4969V53.709H173.668V50.3752H176.57V53.709H177.482V46.4969H176.571V49.5978H173.668V46.4969H172.761ZM180.92 46.4969L178.596 53.709H179.528L180.087 51.8265H182.525L183.094 53.709H184.025L181.697 46.4969H180.92ZM157.143 47.2796H158.535C158.757 47.2796 158.945 47.3193 159.1 47.3985C159.258 47.478 159.387 47.5833 159.486 47.7157C159.589 47.8477 159.663 48.0011 159.709 48.1762C159.759 48.348 159.783 48.5261 159.783 48.7113C159.783 48.9161 159.759 49.104 159.709 49.2757C159.663 49.4445 159.589 49.5911 159.486 49.7167C159.383 49.8423 159.25 49.9409 159.1 50.004C158.945 50.0734 158.757 50.1079 158.535 50.1079H157.143V47.2796ZM152.537 47.7652L153.523 51.0442H151.556L152.537 47.7652ZM181.306 47.7652L182.292 51.0442H180.325L181.306 47.7652ZM138.638 48.2505C138.41 48.2505 138.214 48.3082 138.049 48.4237C137.887 48.5396 137.752 48.6963 137.642 48.8943L137.627 48.3495H136.775V53.709H137.652V49.875C137.735 49.6473 137.852 49.4674 138.004 49.335C138.159 49.203 138.356 49.137 138.593 49.137C138.67 49.137 138.737 49.1407 138.797 49.1471C138.856 49.1505 138.92 49.1583 138.99 49.1718L138.985 48.3198C138.964 48.3108 138.943 48.3041 138.92 48.3C138.891 48.2893 138.862 48.281 138.831 48.2752C138.797 48.2684 138.762 48.2634 138.727 48.2602C138.698 48.2541 138.668 48.2508 138.638 48.2505ZM141.586 48.2505C141.333 48.2501 141.083 48.2954 140.847 48.3843C140.603 48.4777 140.386 48.6289 140.213 48.825C140.032 49.0267 139.885 49.2907 139.772 49.6177C139.66 49.9414 139.604 50.3392 139.604 50.8114V51.4159C139.604 51.8254 139.652 52.1801 139.748 52.4809C139.844 52.7816 139.98 53.0306 140.159 53.2286C140.34 53.4236 140.56 53.5688 140.818 53.6648C141.075 53.7604 141.364 53.8084 141.685 53.8084C141.916 53.8084 142.122 53.7851 142.303 53.739C142.473 53.6983 142.638 53.6384 142.794 53.5605C142.936 53.4848 143.058 53.3989 143.161 53.3029C143.263 53.2069 143.35 53.1079 143.423 53.0059L142.967 52.4509C142.895 52.5401 142.817 52.6226 142.735 52.6984C142.652 52.7715 142.561 52.8356 142.462 52.8919C142.363 52.9444 142.254 52.986 142.135 53.0156C142.016 53.0456 141.883 53.0606 141.734 53.0606C141.328 53.0606 141.016 52.9298 140.798 52.6691C140.583 52.4081 140.476 51.9904 140.476 51.4159V51.2921H143.468V50.7817C143.468 50.3722 143.433 50.0107 143.363 49.6969C143.294 49.3833 143.183 49.1193 143.032 48.9045C142.884 48.6932 142.682 48.5255 142.447 48.4188C142.21 48.3063 141.922 48.2505 141.585 48.2505H141.586ZM141.586 49.0035C141.777 49.0035 141.935 49.038 142.061 49.1073C142.186 49.1767 142.286 49.2742 142.358 49.3998C142.434 49.5251 142.489 49.6755 142.522 49.8506C142.558 50.0224 142.581 50.2121 142.591 50.4202V50.5391H140.481C140.494 50.2384 140.53 49.989 140.59 49.791C140.649 49.593 140.727 49.4359 140.822 49.3204C140.921 49.2015 141.035 49.119 141.164 49.0728C141.3 49.0255 141.442 49.0021 141.585 49.0035H141.586Z" fill="#A6A6A6"/>
</g>
<defs>
<clipPath id="clip0_1_42718">
<rect width="47.25" height="47.25" fill="white" transform="translate(136.776 7.875)"/>
</clipPath>
</defs>
</svg>
