<svg width="20" height="23" viewBox="0 0 20 23" fill="none" xmlns="http://www.w3.org/2000/svg">
<path d="M13.7617 13.8125C12.5156 13.8125 11.957 14.5 9.9375 14.5C7.875 14.5 7.31641 13.8125 6.07031 13.8125C2.89062 13.8125 0.3125 16.4336 0.3125 19.6133V20.6875C0.3125 21.8477 1.21484 22.75 2.375 22.75H17.5C18.6172 22.75 19.5625 21.8477 19.5625 20.6875V19.6133C19.5625 16.4336 16.9414 13.8125 13.7617 13.8125ZM17.5 20.6875H2.375V19.6133C2.375 17.5508 4.00781 15.875 6.07031 15.875C6.71484 15.875 7.70312 16.5625 9.9375 16.5625C12.1289 16.5625 13.1172 15.875 13.7617 15.875C15.8242 15.875 17.5 17.5508 17.5 19.6133V20.6875ZM9.9375 13.125C13.332 13.125 16.125 10.375 16.125 6.9375C16.125 3.54297 13.332 0.75 9.9375 0.75C6.5 0.75 3.75 3.54297 3.75 6.9375C3.75 10.375 6.5 13.125 9.9375 13.125ZM9.9375 2.8125C12.1719 2.8125 14.0625 4.70312 14.0625 6.9375C14.0625 9.21484 12.1719 11.0625 9.9375 11.0625C7.66016 11.0625 5.8125 9.21484 5.8125 6.9375C5.8125 4.70312 7.66016 2.8125 9.9375 2.8125Z" fill="#000FBE"/>
</svg>
