<svg width="20" height="23" viewBox="0 0 20 23" fill="none" xmlns="http://www.w3.org/2000/svg">
<path d="M5.71429 6.82812C5.71429 7.05273 5.84821 7.1875 6.07143 7.1875H15.3571C15.5357 7.1875 15.7143 7.05273 15.7143 6.82812V5.39062C15.7143 5.21094 15.5357 5.03125 15.3571 5.03125H6.07143C5.84821 5.03125 5.71429 5.21094 5.71429 5.39062V6.82812ZM6.07143 10.7812H15.3571C15.5357 10.7812 15.7143 10.6465 15.7143 10.4219V8.98438C15.7143 8.80469 15.5357 8.625 15.3571 8.625H6.07143C5.84821 8.625 5.71429 8.80469 5.71429 8.98438V10.4219C5.71429 10.6465 5.84821 10.7812 6.07143 10.7812ZM19.4196 17.9688C19.7321 17.9238 20 17.6094 20 17.25V0.71875C20 0.359375 19.6429 0 19.2857 0H3.57143C1.5625 0 0 1.61719 0 3.59375V19.4062C0 21.4277 1.5625 23 3.57143 23H19.2857C19.6429 23 20 22.6855 20 22.2812V21.5625C20 21.248 19.7321 20.9336 19.4196 20.8887C19.1964 20.3047 19.1964 18.5527 19.4196 17.9688ZM17.5893 17.9688C17.4554 18.7773 17.4554 20.0801 17.5893 20.8438H3.57143C2.76786 20.8438 2.14286 20.2148 2.14286 19.4062C2.14286 18.6426 2.76786 17.9688 3.57143 17.9688H17.5893ZM17.8571 2.15625V15.8125H3.57143C3.03571 15.8125 2.54464 15.9473 2.14286 16.127V3.59375C2.14286 2.83008 2.76786 2.15625 3.57143 2.15625H17.8571Z" fill="#000FBE"/>
</svg>
