<svg width="26" height="21" viewBox="0 0 26 21" fill="none" xmlns="http://www.w3.org/2000/svg">
<path d="M24.05 0H1.95C0.853125 0 0 0.902344 0 1.96875V15.0938C0 16.2012 0.853125 17.0625 1.95 17.0625H12.025V19.0312H4.55C4.18437 19.0312 3.9 19.3594 3.9 19.6875V20.3438C3.9 20.7129 4.18437 21 4.55 21H21.45C21.775 21 22.1 20.7129 22.1 20.3438V19.6875C22.1 19.3594 21.775 19.0312 21.45 19.0312H13.975V17.0625H24.05C25.1062 17.0625 26 16.2012 26 15.0938V1.96875C26 0.902344 25.1062 0 24.05 0ZM24.05 15.0938H1.95V1.96875H24.05V15.0938Z" fill="#000FBE"/>
</svg>
