<svg width="18" height="14" viewBox="0 0 18 14" fill="none" xmlns="http://www.w3.org/2000/svg">
<path d="M16.5 0H1.5C0.65625 0 0 0.6875 0 1.5V12.5C0 13.3438 0.65625 14 1.5 14H16.5C17.3125 14 18 13.3438 18 12.5V1.5C18 0.6875 17.3125 0 16.5 0ZM16.5 12.5H1.5V1.5H16.5V12.5ZM6.5 7C7.59375 7 8.5 6.125 8.5 5C8.5 3.90625 7.59375 3 6.5 3C5.375 3 4.5 3.90625 4.5 5C4.5 6.125 5.375 7 6.5 7ZM3.6875 11H9.28125C9.6875 11 10 10.75 10 10.4062V9.8125C10 8.8125 9.03125 8 7.875 8C7.5625 8 7.3125 8.25 6.5 8.25C5.65625 8.25 5.4375 8 5.09375 8C3.9375 8 3 8.8125 3 9.8125V10.4062C3 10.75 3.3125 11 3.6875 11ZM11.25 9H14.75C14.875 9 15 8.90625 15 8.75V8.25C15 8.125 14.875 8 14.75 8H11.25C11.0938 8 11 8.125 11 8.25V8.75C11 8.90625 11.0938 9 11.25 9ZM11.25 7H14.75C14.875 7 15 6.90625 15 6.75V6.25C15 6.125 14.875 6 14.75 6H11.25C11.0938 6 11 6.125 11 6.25V6.75C11 6.90625 11.0938 7 11.25 7ZM11.25 5H14.75C14.875 5 15 4.90625 15 4.75V4.25C15 4.125 14.875 4 14.75 4H11.25C11.0938 4 11 4.125 11 4.25V4.75C11 4.90625 11.0938 5 11.25 5Z" fill="url(#paint0_radial_6023_7084)"/>
<defs>
<radialGradient id="paint0_radial_6023_7084" cx="0" cy="0" r="1" gradientUnits="userSpaceOnUse" gradientTransform="translate(17.4771 15) rotate(-137.251) scale(22.6997 51.4282)">
<stop stop-color="#000FBE"/>
<stop offset="0.696759" stop-color="#3D3DE0"/>
</radialGradient>
</defs>
</svg>
