<svg width="24" height="28" viewBox="0 0 24 28" fill="none" xmlns="http://www.w3.org/2000/svg">
<path d="M23.3571 8.75C23.6786 8.75 24 8.47656 24 8.09375V5.90625C24 5.57812 23.6786 5.25 23.3571 5.25H22.2857V2.625C22.2857 1.20312 21.1071 0 19.7143 0H2.57143C1.125 0 0 1.20312 0 2.625V25.375C0 26.8516 1.125 28 2.57143 28H19.7143C21.1071 28 22.2857 26.8516 22.2857 25.375V22.75H23.3571C23.6786 22.75 24 22.4766 24 22.0938V19.9062C24 19.5781 23.6786 19.25 23.3571 19.25H22.2857V15.75H23.3571C23.6786 15.75 24 15.4766 24 15.0938V12.9062C24 12.5781 23.6786 12.25 23.3571 12.25H22.2857V8.75H23.3571ZM19.7143 25.375H2.57143V2.625H19.7143V25.375ZM11.1429 14C13.0179 14 14.5714 12.4688 14.5714 10.5C14.5714 8.58594 13.0179 7 11.1429 7C9.21429 7 7.71429 8.58594 7.71429 10.5C7.71429 12.4688 9.21429 14 11.1429 14ZM6.32143 21H15.9107C16.6071 21 17.1429 20.5625 17.1429 19.9609V18.9219C17.1429 17.1719 15.4821 15.75 13.5 15.75C12.9643 15.75 12.5357 16.1875 11.1429 16.1875C9.69643 16.1875 9.32143 15.75 8.73214 15.75C6.75 15.75 5.14286 17.1719 5.14286 18.9219V19.9609C5.14286 20.5625 5.67857 21 6.32143 21Z" fill="#000FBE"/>
</svg>
