<svg width="26" height="24" viewBox="0 0 26 24" fill="none" xmlns="http://www.w3.org/2000/svg">
<path d="M18.1695 16.1604C18.0791 16.2543 18.0791 16.3482 18.0791 16.4421V21.7467H2.16949V5.22249H13.0621C13.1525 5.22249 13.2429 5.22249 13.3333 5.12861L14.7797 3.62641C15.0056 3.39169 14.8249 2.96919 14.5085 2.96919H2.16949C0.949153 2.96919 0 4.00196 0 5.22249V21.7467C0 23.0142 0.949153 24 2.16949 24H18.0791C19.2542 24 20.2486 23.0142 20.2486 21.7467V14.9399C20.2486 14.6112 19.8418 14.4235 19.6158 14.6582L18.1695 16.1604ZM25.2203 6.72469C26.2599 5.64499 26.2599 3.90807 25.2203 2.82836L23.2768 0.80978C22.2373 -0.269927 20.565 -0.269927 19.5254 0.80978L7.68362 13.109L7.23164 17.3809C7.09605 18.6015 8.0904 19.6342 9.26554 19.4934L13.3785 19.024L25.2203 6.72469ZM20.791 8.13301L12.3842 16.8645L9.40113 17.2401L9.76271 14.1418L18.1695 5.41027L20.791 8.13301ZM23.6836 4.42445C23.9096 4.61223 23.9096 4.89389 23.7288 5.12861L22.3277 6.58386L19.7062 3.81418L21.0621 2.40587C21.2429 2.17115 21.5593 2.17115 21.7401 2.40587L23.6836 4.42445Z" fill="#000FBE"/>
</svg>
