<svg width="20" height="23" viewBox="0 0 20 23" fill="none" xmlns="http://www.w3.org/2000/svg">
<path d="M19.2383 15.8184C18.4219 14.916 16.832 13.584 16.832 9.1582C16.832 5.84961 14.5117 3.18555 11.332 2.49805V1.5957C11.332 0.865234 10.7305 0.220703 10 0.220703C9.22656 0.220703 8.625 0.865234 8.625 1.5957V2.49805C5.44531 3.18555 3.125 5.84961 3.125 9.1582C3.125 13.584 1.53516 14.916 0.71875 15.8184C0.460938 16.0762 0.332031 16.4199 0.375 16.7207C0.375 17.4512 0.890625 18.0957 1.75 18.0957H18.207C19.0664 18.0957 19.582 17.4512 19.625 16.7207C19.625 16.4199 19.4961 16.0762 19.2383 15.8184ZM3.25391 16.0332C4.15625 14.873 5.14453 12.8535 5.1875 9.20117C5.1875 9.20117 5.1875 9.20117 5.1875 9.1582C5.1875 6.53711 7.33594 4.3457 10 4.3457C12.6211 4.3457 14.8125 6.53711 14.8125 9.1582C14.8125 9.20117 14.7695 9.20117 14.7695 9.20117C14.8125 12.8535 15.8008 14.873 16.7031 16.0332H3.25391ZM10 22.2207C11.5039 22.2207 12.707 21.0176 12.707 19.4707H7.25C7.25 21.0176 8.45312 22.2207 10 22.2207Z" fill="url(#paint0_radial_1_35972)"/>
<defs>
<radialGradient id="paint0_radial_1_35972" cx="0" cy="0" r="1" gradientUnits="userSpaceOnUse" gradientTransform="translate(22.1858 24.5295) rotate(-132.6) scale(35.4006 80.1691)">
<stop stop-color="#000FBE"/>
<stop offset="0.696759" stop-color="#3D3DE0"/>
</radialGradient>
</defs>
</svg>
