<svg width="14" height="12" viewBox="0 0 14 12" fill="none" xmlns="http://www.w3.org/2000/svg">
<path d="M12.625 6.75H10.4453L11.5469 5.67188C12.25 4.96875 11.7344 3.75 10.75 3.75H9.25V1.125C9.25 0.515625 8.73438 0 8.125 0H5.875C5.24219 0 4.75 0.515625 4.75 1.125V3.75H3.25C2.24219 3.75 1.72656 4.96875 2.45312 5.67188L3.53125 6.75H1.375C0.742188 6.75 0.25 7.26562 0.25 7.875V10.875C0.25 11.5078 0.742188 12 1.375 12H12.625C13.2344 12 13.75 11.5078 13.75 10.875V7.875C13.75 7.26562 13.2344 6.75 12.625 6.75ZM3.25 4.875H5.875V1.125H8.125V4.875H10.75L7 8.625L3.25 4.875ZM12.625 10.875H1.375V7.875H4.65625L6.20312 9.42188C6.625 9.86719 7.35156 9.86719 7.77344 9.42188L9.32031 7.875H12.625V10.875ZM10.5625 9.375C10.5625 9.70312 10.7969 9.9375 11.125 9.9375C11.4297 9.9375 11.6875 9.70312 11.6875 9.375C11.6875 9.07031 11.4297 8.8125 11.125 8.8125C10.7969 8.8125 10.5625 9.07031 10.5625 9.375Z" fill="#000FBE"/>
</svg>
