<svg width="24" height="24" viewBox="0 0 24 24" fill="none" xmlns="http://www.w3.org/2000/svg">
<path d="M15.8242 13.8125C14.5781 13.8125 14.0195 14.5 12 14.5C9.9375 14.5 9.37891 13.8125 8.13281 13.8125C4.95312 13.8125 2.375 16.4336 2.375 19.6133V20.6875C2.375 21.8477 3.27734 22.75 4.4375 22.75H19.5625C20.6797 22.75 21.625 21.8477 21.625 20.6875V19.6133C21.625 16.4336 19.0039 13.8125 15.8242 13.8125ZM19.5625 20.6875H4.4375V19.6133C4.4375 17.5508 6.07031 15.875 8.13281 15.875C8.77734 15.875 9.76562 16.5625 12 16.5625C14.1914 16.5625 15.1797 15.875 15.8242 15.875C17.8867 15.875 19.5625 17.5508 19.5625 19.6133V20.6875ZM12 13.125C15.3945 13.125 18.1875 10.375 18.1875 6.9375C18.1875 3.54297 15.3945 0.75 12 0.75C8.5625 0.75 5.8125 3.54297 5.8125 6.9375C5.8125 10.375 8.5625 13.125 12 13.125ZM12 2.8125C14.2344 2.8125 16.125 4.70312 16.125 6.9375C16.125 9.21484 14.2344 11.0625 12 11.0625C9.72266 11.0625 7.875 9.21484 7.875 6.9375C7.875 4.70312 9.72266 2.8125 12 2.8125Z" fill="#000FBE"/>
</svg>
